#!OML:ASF C:\Vicon Data\Big\jianyuan-13\jianyuan\Session 1\Capture.male.ASF
:FULLY-SPECIFIED
:DEGREES
181
root -7.810350 17.445715 -15.737571 10.082529 4.628821 1.884572
lowerback -9.471571 0.230924 -2.744669 
upperback -0.601670 0.545438 -0.356807 
thorax 4.664322 0.185318 1.243708 
lowerneck -9.470579 -2.275980 4.677040 
upperneck 11.052932 -3.321829 -4.281857 
head 4.712368 -1.753317 -2.313603 
rclavicle 0.000000 0.000000 
rhumerus -37.732118 -14.992596 -82.204224 
rradius 32.648859 
rwrist 24.828997 
rhand -19.875504 -15.244079 
rfingers 0.000000 
rthumb 6.460020 -45.125489 
lclavicle 0.000000 0.000000 
lhumerus -48.818612 41.366528 61.090900 
lradius 22.235258 
lwrist -69.548138 
lhand -22.963138 -1.094544 
lfingers 0.000000 
lthumb 3.478717 28.856844 
rfemur -23.749284 -2.461397 20.880180 
rtibia 55.865923 
rfoot -5.208184 1.179492 
rtoes -27.202881 
lfemur -21.973725 -6.119633 -22.490009 
ltibia 16.531078 
lfoot -5.719571 2.988505 
ltoes -12.643825 
182
root -7.809615 17.445780 -15.727152 10.099592 4.624531 1.893260
lowerback -9.466351 0.219516 -2.745967 
upperback -0.609368 0.529952 -0.363730 
thorax 4.654044 0.177724 1.235091 
lowerneck -9.471355 -2.264606 4.700079 
upperneck 11.063345 -3.309220 -4.288544 
head 4.715777 -1.746704 -2.318843 
rclavicle 0.000000 0.000000 
rhumerus -37.774161 -15.050466 -82.167137 
rradius 32.611054 
rwrist 24.936214 
rhand -19.817634 -15.197971 
rfingers 0.000000 
rthumb 6.515907 -45.077684 
lclavicle 0.000000 0.000000 
lhumerus -48.662808 41.296897 61.260356 
lradius 22.269519 
lwrist -69.433833 
lhand -22.977921 -1.082001 
lfingers 0.000000 
lthumb 3.464452 28.869627 
rfemur -23.912306 -2.468951 20.862007 
rtibia 56.010879 
rfoot -5.293554 1.063212 
rtoes -27.220164 
lfemur -21.964573 -6.102601 -22.507270 
ltibia 16.553121 
lfoot -5.727767 2.970642 
ltoes -12.702977 
183
root -7.806314 17.445257 -15.698398 10.111450 4.555515 1.967512
lowerback -9.431358 0.197392 -2.804557 
upperback -0.606534 0.506512 -0.386826 
thorax 4.638100 0.165271 1.240657 
lowerneck -9.422693 -2.242906 4.725156 
upperneck 11.040928 -3.280973 -4.298681 
head 4.701450 -1.732392 -2.323063 
rclavicle 0.000000 0.000000 
rhumerus -37.846243 -15.180768 -82.086947 
rradius 32.474344 
rwrist 25.216822 
rhand -19.752159 -15.109835 
rfingers 0.000000 
rthumb 6.579082 -44.987623 
lclavicle 0.000000 0.000000 
lhumerus -48.192489 41.163738 61.748602 
lradius 22.318991 
lwrist -69.140219 
lhand -22.993096 -1.043702 
lfingers 0.000000 
lthumb 3.449782 28.908139 
rfemur -24.317215 -2.498675 20.736945 
rtibia 56.373613 
rfoot -5.521067 0.847294 
rtoes -27.022504 
lfemur -21.880034 -6.108695 -22.604854 
ltibia 16.597154 
lfoot -5.829461 3.002828 
ltoes -12.780515 
184
root -7.802286 17.444543 -15.661908 10.138731 4.474489 2.043866
lowerback -9.404172 0.170868 -2.878618 
upperback -0.599759 0.478703 -0.392846 
thorax 4.630588 0.150162 1.272216 
lowerneck -9.392550 -2.216664 4.679525 
upperneck 11.040644 -3.242917 -4.262891 
head 4.699550 -1.713410 -2.301677 
rclavicle 0.000000 0.000000 
rhumerus -37.937049 -15.275539 -81.998529 
rradius 32.345889 
rwrist 25.425732 
rhand -19.731694 -15.078382 
rfingers 0.000000 
rthumb 6.598810 -44.955560 
lclavicle 0.000000 0.000000 
lhumerus -47.607343 41.044974 62.366087 
lradius 22.381468 
lwrist -68.825012 
lhand -23.009428 -1.011559 
lfingers 0.000000 
lthumb 3.433993 28.940514 
rfemur -24.847578 -2.517486 20.603358 
rtibia 56.804623 
rfoot -5.792250 0.533847 
rtoes -26.564764 
lfemur -21.783271 -6.130453 -22.701690 
ltibia 16.642130 
lfoot -5.966977 3.044388 
ltoes -12.810902 
185
root -7.799084 17.444079 -15.625681 10.188427 4.420642 2.076498
lowerback -9.404914 0.144117 -2.933402 
upperback -0.592968 0.448284 -0.366250 
thorax 4.638774 0.133780 1.326764 
lowerneck -9.410896 -2.192669 4.546408 
upperneck 11.085113 -3.205036 -4.162864 
head 4.722208 -1.694294 -2.247832 
rclavicle 0.000000 0.000000 
rhumerus -38.034144 -15.288473 -81.924547 
rradius 32.277386 
rwrist 25.452801 
rhand -19.778954 -15.145832 
rfingers 0.000000 
rthumb 6.553199 -45.024391 
lclavicle 0.000000 0.000000 
lhumerus -47.038098 40.962305 62.986258 
lradius 22.455160 
lwrist -68.555340 
lhand -23.027794 -0.998261 
lfingers 0.000000 
lthumb 3.416257 28.954100 
rfemur -25.401358 -2.504764 20.531510 
rtibia 57.190554 
rfoot -6.057601 0.140881 
rtoes -25.901309 
lfemur -21.712663 -6.158918 -22.740583 
ltibia 16.673674 
lfoot -6.097545 3.063671 
ltoes -12.710230 
186
root -7.797746 17.444701 -15.588975 10.219666 4.396084 2.066409
lowerback -9.395138 0.113287 -2.947930 
upperback -0.579883 0.408846 -0.350701 
thorax 4.648535 0.113951 1.345943 
lowerneck -9.372258 -2.184581 4.510298 
upperneck 11.082080 -3.197632 -4.084118 
head 4.717246 -1.687108 -2.216389 
rclavicle 0.000000 0.000000 
rhumerus -38.119228 -15.392611 -81.847240 
rradius 32.121140 
rwrist 25.664656 
rhand -19.820173 -15.161776 
rfingers 0.000000 
rthumb 6.513410 -45.041579 
lclavicle 0.000000 0.000000 
lhumerus -46.364893 40.718330 63.715616 
lradius 22.543511 
lwrist -68.049580 
lhand -23.050504 -0.945310 
lfingers 0.000000 
lthumb 3.394340 29.007452 
rfemur -25.918083 -2.475926 20.513545 
rtibia 57.524434 
rfoot -6.459167 -0.269443 
rtoes -25.449447 
lfemur -21.621357 -6.178750 -22.729461 
ltibia 16.697006 
lfoot -6.227434 3.050816 
ltoes -12.248335 
187
root -7.795087 17.444211 -15.553774 10.264732 4.340799 2.153125
lowerback -9.373184 0.071990 -3.057342 
upperback -0.573641 0.364459 -0.339883 
thorax 4.644070 0.089737 1.412818 
lowerneck -9.364124 -2.170455 4.430365 
upperneck 11.095545 -3.168708 -4.076901 
head 4.722732 -1.676091 -2.199488 
rclavicle 0.000000 0.000000 
rhumerus -38.209560 -15.574996 -81.682197 
rradius 31.931093 
rwrist 26.055328 
rhand -19.819760 -15.094904 
rfingers 0.000000 
rthumb 6.513820 -44.974773 
lclavicle 0.000000 0.000000 
lhumerus -45.804017 40.619797 64.318772 
lradius 22.628467 
lwrist -67.789528 
lhand -23.056915 -0.925567 
lfingers 0.000000 
lthumb 3.388160 29.027291 
rfemur -26.453921 -2.457245 20.377800 
rtibia 57.812330 
rfoot -6.839766 -0.590153 
rtoes -25.056779 
lfemur -21.537046 -6.185936 -22.835002 
ltibia 16.717067 
lfoot -6.385051 3.067576 
ltoes -11.526869 
188
root -7.792393 17.443857 -15.518334 10.296008 4.297764 2.220452
lowerback -9.341653 0.034666 -3.151347 
upperback -0.557899 0.324018 -0.324515 
thorax 4.644178 0.067870 1.476295 
lowerneck -9.398457 -2.139251 4.468041 
upperneck 11.128026 -3.126030 -4.140586 
head 4.738637 -1.658088 -2.223861 
rclavicle 0.000000 0.000000 
rhumerus -38.288286 -15.837428 -81.480945 
rradius 31.736478 
rwrist 26.438002 
rhand -19.811473 -15.018774 
rfingers 0.000000 
rthumb 6.521801 -44.898401 
lclavicle 0.000000 0.000000 
lhumerus -45.199364 40.508542 64.952885 
lradius 22.684496 
lwrist -67.459949 
lhand -23.105235 -0.824950 
lfingers 0.000000 
lthumb 3.341499 29.128613 
rfemur -26.960269 -2.430508 20.262292 
rtibia 58.050858 
rfoot -7.209041 -0.932315 
rtoes -24.655733 
lfemur -21.434856 -6.219055 -22.913915 
ltibia 16.727387 
lfoot -6.493809 3.084513 
ltoes -11.713275 
189
root -7.790274 17.444095 -15.482452 10.325142 4.273556 2.241791
lowerback -9.310157 -0.001595 -3.196952 
upperback -0.541515 0.279930 -0.303706 
thorax 4.645504 0.045262 1.517769 
lowerneck -9.440686 -2.101461 4.568353 
upperneck 11.164662 -3.080153 -4.232252 
head 4.755806 -1.637731 -2.267091 
rclavicle 0.000000 0.000000 
rhumerus -38.358583 -16.142302 -81.277899 
rradius 31.544106 
rwrist 26.771879 
rhand -19.804790 -14.964353 
rfingers 0.000000 
rthumb 6.528228 -44.843732 
lclavicle 0.000000 0.000000 
lhumerus -44.559931 40.349597 65.617234 
lradius 22.742300 
lwrist -67.031324 
lhand -23.172025 -0.695809 
lfingers 0.000000 
lthumb 3.276992 29.258751 
rfemur -27.451212 -2.387503 20.201816 
rtibia 58.242450 
rfoot -7.566028 -1.315239 
rtoes -24.216671 
lfemur -21.328812 -6.258977 -22.936865 
ltibia 16.725770 
lfoot -6.555484 3.087631 
ltoes -12.454832 
190
root -7.789244 17.445185 -15.446504 10.383827 4.261319 2.220014
lowerback -9.294457 -0.047798 -3.183565 
upperback -0.546653 0.215474 -0.279926 
thorax 4.634492 0.013814 1.526499 
lowerneck -9.425056 -2.080264 4.566476 
upperneck 11.178212 -3.046565 -4.275629 
head 4.758157 -1.624523 -2.278157 
rclavicle 0.000000 0.000000 
rhumerus -38.433266 -16.420941 -81.112491 
rradius 31.353934 
rwrist 27.063758 
rhand -19.802531 -14.954930 
rfingers 0.000000 
rthumb 6.530439 -44.834232 
lclavicle 0.000000 0.000000 
lhumerus -43.966518 40.148288 66.245302 
lradius 22.865888 
lwrist -66.584784 
lhand -23.191727 -0.677462 
lfingers 0.000000 
lthumb 3.257944 29.277441 
rfemur -27.971889 -2.322056 20.198545 
rtibia 58.395086 
rfoot -7.905745 -1.725637 
rtoes -23.717020 
lfemur -21.253740 -6.256228 -22.913425 
ltibia 16.711596 
lfoot -6.606602 3.065063 
ltoes -12.632934 
